<?xml version="1.0" encoding="utf-8" standalone="no"?>
<!DOCTYPE svg PUBLIC "-//W3C//DTD SVG 1.1//EN"
  "http://www.w3.org/Graphics/SVG/1.1/DTD/svg11.dtd">
<svg xmlns:xlink="http://www.w3.org/1999/xlink" width="452.907692pt" height="245.578455pt" viewBox="0 0 452.907692 245.578455" xmlns="http://www.w3.org/2000/svg" version="1.1">
 <metadata>
  <rdf:RDF xmlns:dc="http://purl.org/dc/elements/1.1/" xmlns:cc="http://creativecommons.org/ns#" xmlns:rdf="http://www.w3.org/1999/02/22-rdf-syntax-ns#">
   <cc:Work>
    <dc:type rdf:resource="http://purl.org/dc/dcmitype/StillImage"/>
    <dc:date>2026-09-17T16:00:00.877708</dc:date>
    <dc:format>image/svg+xml</dc:format>
    <dc:creator>
     <cc:Agent>
      <dc:title>Matplotlib v3.11.1, https://matplotlib.org/</dc:title>
     </cc:Agent>
    </dc:creator>
   </cc:Work>
  </rdf:RDF>
 </metadata>
 <defs>
  <style type="text/css">*{stroke-linejoin: round; stroke-linecap: butt}</style>
 </defs>
 <g id="figure_1">
  <g id="patch_1">
   <path d="M 0 245.578455 
L 452.907692 245.578455 
L 452.907692 0 
L 0 0 
z
" style="fill: #ffffff"/>
  </g>
  <g id="axes_1">
   <g id="patch_2">
    <path d="M 7.2 211.378455 
L 445.707692 211.378455 
L 445.707692 7.2 
L 7.2 7.2 
z
" style="fill: #ffffff"/>
   </g>
   <g id="matplotlib.axis_1">
    <g id="xtick_1">
     <g id="line2d_1">
      <path d="M 15.63284 211.378455 
L 15.63284 7.2 
" clip-path="url(#p092527d3a7)" style="fill: none; stroke-dasharray: 0.5,0.825; stroke-dashoffset: 0; stroke: #000000; stroke-width: 0.5"/>
     </g>
     <g id="line2d_2">
      <defs>
       <path id="m7accb98e02" d="M 0 0 
L 0 3.5 
" style="stroke: #000000; stroke-width: 0.8"/>
      </defs>
      <g>
       <use xlink:href="#m7accb98e02" x="15.63284" y="221.378455" style="stroke: #000000; stroke-width: 0.8"/>
      </g>
     </g>
     <g id="text_1">
      <!-- −2 -->
      <g transform="translate(8.261746 235.976111) scale(0.1 -0.1)">
       <defs>
        <path id="DejaVuSans-c9c" d="M 678 2272 
L 4684 2272 
L 4684 1741 
L 678 1741 
L 678 2272 
z
" transform="scale(0.015625)"/>
        <path id="DejaVuSans-15" d="M 1228 531 
L 3431 531 
L 3431 0 
L 469 0 
L 469 531 
Q 828 903 1448 1529 
Q 2069 2156 2228 2338 
Q 2531 2678 2651 2914 
Q 2772 3150 2772 3378 
Q 2772 3750 2511 3984 
Q 2250 4219 1831 4219 
Q 1534 4219 1204 4116 
Q 875 4013 500 3803 
L 500 4441 
Q 881 4594 1212 4672 
Q 1544 4750 1819 4750 
Q 2544 4750 2975 4387 
Q 3406 4025 3406 3419 
Q 3406 3131 3298 2873 
Q 3191 2616 2906 2266 
Q 2828 2175 2409 1742 
Q 1991 1309 1228 531 
z
" transform="scale(0.015625)"/>
       </defs>
       <use xlink:href="#DejaVuSans-c9c"/>
       <use xlink:href="#DejaVuSans-15" transform="translate(83.796875 0)"/>
      </g>
     </g>
    </g>
    <g id="xtick_2">
     <g id="line2d_3">
      <path d="M 68.338092 211.378455 
L 68.338092 7.2 
" clip-path="url(#p092527d3a7)" style="fill: none; stroke-dasharray: 0.5,0.825; stroke-dashoffset: 0; stroke: #000000; stroke-width: 0.5"/>
     </g>
     <g id="line2d_4">
      <g>
       <use xlink:href="#m7accb98e02" x="68.338092" y="221.378455" style="stroke: #000000; stroke-width: 0.8"/>
      </g>
     </g>
     <g id="text_2">
      <!-- −1 -->
      <g transform="translate(60.966998 235.976111) scale(0.1 -0.1)">
       <defs>
        <path id="DejaVuSans-14" d="M 794 531 
L 1825 531 
L 1825 4091 
L 703 3866 
L 703 4441 
L 1819 4666 
L 2450 4666 
L 2450 531 
L 3481 531 
L 3481 0 
L 794 0 
L 794 531 
z
" transform="scale(0.015625)"/>
       </defs>
       <use xlink:href="#DejaVuSans-c9c"/>
       <use xlink:href="#DejaVuSans-14" transform="translate(83.796875 0)"/>
      </g>
     </g>
    </g>
    <g id="xtick_3">
     <g id="line2d_5">
      <path d="M 121.043343 211.378455 
L 121.043343 7.2 
" clip-path="url(#p092527d3a7)" style="fill: none; stroke-dasharray: 0.5,0.825; stroke-dashoffset: 0; stroke: #000000; stroke-width: 0.5"/>
     </g>
     <g id="line2d_6">
      <g>
       <use xlink:href="#m7accb98e02" x="121.043343" y="221.378455" style="stroke: #000000; stroke-width: 0.8"/>
      </g>
     </g>
     <g id="text_3">
      <!-- 0 -->
      <g transform="translate(117.862093 235.976111) scale(0.1 -0.1)">
       <defs>
        <path id="DejaVuSans-13" d="M 2034 4250 
Q 1547 4250 1301 3770 
Q 1056 3291 1056 2328 
Q 1056 1369 1301 889 
Q 1547 409 2034 409 
Q 2525 409 2770 889 
Q 3016 1369 3016 2328 
Q 3016 3291 2770 3770 
Q 2525 4250 2034 4250 
z
M 2034 4750 
Q 2819 4750 3233 4129 
Q 3647 3509 3647 2328 
Q 3647 1150 3233 529 
Q 2819 -91 2034 -91 
Q 1250 -91 836 529 
Q 422 1150 422 2328 
Q 422 3509 836 4129 
Q 1250 4750 2034 4750 
z
" transform="scale(0.015625)"/>
       </defs>
       <use xlink:href="#DejaVuSans-13"/>
      </g>
     </g>
    </g>
    <g id="xtick_4">
     <g id="line2d_7">
      <path d="M 173.748595 211.378455 
L 173.748595 7.2 
" clip-path="url(#p092527d3a7)" style="fill: none; stroke-dasharray: 0.5,0.825; stroke-dashoffset: 0; stroke: #000000; stroke-width: 0.5"/>
     </g>
     <g id="line2d_8">
      <g>
       <use xlink:href="#m7accb98e02" x="173.748595" y="221.378455" style="stroke: #000000; stroke-width: 0.8"/>
      </g>
     </g>
     <g id="text_4">
      <!-- 1 -->
      <g transform="translate(170.567345 235.976111) scale(0.1 -0.1)">
       <use xlink:href="#DejaVuSans-14"/>
      </g>
     </g>
    </g>
    <g id="xtick_5">
     <g id="line2d_9">
      <path d="M 226.453846 211.378455 
L 226.453846 7.2 
" clip-path="url(#p092527d3a7)" style="fill: none; stroke-dasharray: 0.5,0.825; stroke-dashoffset: 0; stroke: #000000; stroke-width: 0.5"/>
     </g>
     <g id="line2d_10">
      <g>
       <use xlink:href="#m7accb98e02" x="226.453846" y="221.378455" style="stroke: #000000; stroke-width: 0.8"/>
      </g>
     </g>
     <g id="text_5">
      <!-- 2 -->
      <g transform="translate(223.272596 235.976111) scale(0.1 -0.1)">
       <use xlink:href="#DejaVuSans-15"/>
      </g>
     </g>
    </g>
    <g id="xtick_6">
     <g id="line2d_11">
      <path d="M 279.159098 211.378455 
L 279.159098 7.2 
" clip-path="url(#p092527d3a7)" style="fill: none; stroke-dasharray: 0.5,0.825; stroke-dashoffset: 0; stroke: #000000; stroke-width: 0.5"/>
     </g>
     <g id="line2d_12">
      <g>
       <use xlink:href="#m7accb98e02" x="279.159098" y="221.378455" style="stroke: #000000; stroke-width: 0.8"/>
      </g>
     </g>
     <g id="text_6">
      <!-- 3 -->
      <g transform="translate(275.977848 235.976111) scale(0.1 -0.1)">
       <defs>
        <path id="DejaVuSans-16" d="M 2597 2516 
Q 3050 2419 3304 2112 
Q 3559 1806 3559 1356 
Q 3559 666 3084 287 
Q 2609 -91 1734 -91 
Q 1441 -91 1130 -33 
Q 819 25 488 141 
L 488 750 
Q 750 597 1062 519 
Q 1375 441 1716 441 
Q 2309 441 2620 675 
Q 2931 909 2931 1356 
Q 2931 1769 2642 2001 
Q 2353 2234 1838 2234 
L 1294 2234 
L 1294 2753 
L 1863 2753 
Q 2328 2753 2575 2939 
Q 2822 3125 2822 3475 
Q 2822 3834 2567 4026 
Q 2313 4219 1838 4219 
Q 1578 4219 1281 4162 
Q 984 4106 628 3988 
L 628 4550 
Q 988 4650 1302 4700 
Q 1616 4750 1894 4750 
Q 2613 4750 3031 4423 
Q 3450 4097 3450 3541 
Q 3450 3153 3228 2886 
Q 3006 2619 2597 2516 
z
" transform="scale(0.015625)"/>
       </defs>
       <use xlink:href="#DejaVuSans-16"/>
      </g>
     </g>
    </g>
    <g id="xtick_7">
     <g id="line2d_13">
      <path d="M 331.864349 211.378455 
L 331.864349 7.2 
" clip-path="url(#p092527d3a7)" style="fill: none; stroke-dasharray: 0.5,0.825; stroke-dashoffset: 0; stroke: #000000; stroke-width: 0.5"/>
     </g>
     <g id="line2d_14">
      <g>
       <use xlink:href="#m7accb98e02" x="331.864349" y="221.378455" style="stroke: #000000; stroke-width: 0.8"/>
      </g>
     </g>
     <g id="text_7">
      <!-- 4 -->
      <g transform="translate(328.683099 235.976111) scale(0.1 -0.1)">
       <defs>
        <path id="DejaVuSans-17" d="M 2419 4116 
L 825 1625 
L 2419 1625 
L 2419 4116 
z
M 2253 4666 
L 3047 4666 
L 3047 1625 
L 3713 1625 
L 3713 1100 
L 3047 1100 
L 3047 0 
L 2419 0 
L 2419 1100 
L 313 1100 
L 313 1709 
L 2253 4666 
z
" transform="scale(0.015625)"/>
       </defs>
       <use xlink:href="#DejaVuSans-17"/>
      </g>
     </g>
    </g>
    <g id="xtick_8">
     <g id="line2d_15">
      <path d="M 384.569601 211.378455 
L 384.569601 7.2 
" clip-path="url(#p092527d3a7)" style="fill: none; stroke-dasharray: 0.5,0.825; stroke-dashoffset: 0; stroke: #000000; stroke-width: 0.5"/>
     </g>
     <g id="line2d_16">
      <g>
       <use xlink:href="#m7accb98e02" x="384.569601" y="221.378455" style="stroke: #000000; stroke-width: 0.8"/>
      </g>
     </g>
     <g id="text_8">
      <!-- 5 -->
      <g transform="translate(381.388351 235.976111) scale(0.1 -0.1)">
       <defs>
        <path id="DejaVuSans-18" d="M 691 4666 
L 3169 4666 
L 3169 4134 
L 1269 4134 
L 1269 2991 
Q 1406 3038 1543 3061 
Q 1681 3084 1819 3084 
Q 2600 3084 3056 2656 
Q 3513 2228 3513 1497 
Q 3513 744 3044 326 
Q 2575 -91 1722 -91 
Q 1428 -91 1123 -41 
Q 819 9 494 109 
L 494 744 
Q 775 591 1075 516 
Q 1375 441 1709 441 
Q 2250 441 2565 725 
Q 2881 1009 2881 1497 
Q 2881 1984 2565 2268 
Q 2250 2553 1709 2553 
Q 1456 2553 1204 2497 
Q 953 2441 691 2322 
L 691 4666 
z
" transform="scale(0.015625)"/>
       </defs>
       <use xlink:href="#DejaVuSans-18"/>
      </g>
     </g>
    </g>
    <g id="xtick_9">
     <g id="line2d_17">
      <path d="M 437.274852 211.378455 
L 437.274852 7.2 
" clip-path="url(#p092527d3a7)" style="fill: none; stroke-dasharray: 0.5,0.825; stroke-dashoffset: 0; stroke: #000000; stroke-width: 0.5"/>
     </g>
     <g id="line2d_18">
      <g>
       <use xlink:href="#m7accb98e02" x="437.274852" y="221.378455" style="stroke: #000000; stroke-width: 0.8"/>
      </g>
     </g>
     <g id="text_9">
      <!-- 6 -->
      <g transform="translate(434.093602 235.976111) scale(0.1 -0.1)">
       <defs>
        <path id="DejaVuSans-19" d="M 2113 2584 
Q 1688 2584 1439 2293 
Q 1191 2003 1191 1497 
Q 1191 994 1439 701 
Q 1688 409 2113 409 
Q 2538 409 2786 701 
Q 3034 994 3034 1497 
Q 3034 2003 2786 2293 
Q 2538 2584 2113 2584 
z
M 3366 4563 
L 3366 3988 
Q 3128 4100 2886 4159 
Q 2644 4219 2406 4219 
Q 1781 4219 1451 3797 
Q 1122 3375 1075 2522 
Q 1259 2794 1537 2939 
Q 1816 3084 2150 3084 
Q 2853 3084 3261 2657 
Q 3669 2231 3669 1497 
Q 3669 778 3244 343 
Q 2819 -91 2113 -91 
Q 1303 -91 875 529 
Q 447 1150 447 2328 
Q 447 3434 972 4092 
Q 1497 4750 2381 4750 
Q 2619 4750 2861 4703 
Q 3103 4656 3366 4563 
z
" transform="scale(0.015625)"/>
       </defs>
       <use xlink:href="#DejaVuSans-19"/>
      </g>
     </g>
    </g>
    <g id="xtick_10">
     <g id="line2d_19">
      <defs>
       <path id="mfe069522df" d="M 0 0 
L 0 2 
" style="stroke: #000000; stroke-width: 0.6"/>
      </defs>
      <g>
       <use xlink:href="#mfe069522df" x="26.173891" y="221.378455" style="stroke: #000000; stroke-width: 0.6"/>
      </g>
     </g>
    </g>
    <g id="xtick_11">
     <g id="line2d_20">
      <g>
       <use xlink:href="#mfe069522df" x="36.714941" y="221.378455" style="stroke: #000000; stroke-width: 0.6"/>
      </g>
     </g>
    </g>
    <g id="xtick_12">
     <g id="line2d_21">
      <g>
       <use xlink:href="#mfe069522df" x="47.255991" y="221.378455" style="stroke: #000000; stroke-width: 0.6"/>
      </g>
     </g>
    </g>
    <g id="xtick_13">
     <g id="line2d_22">
      <g>
       <use xlink:href="#mfe069522df" x="57.797041" y="221.378455" style="stroke: #000000; stroke-width: 0.6"/>
      </g>
     </g>
    </g>
    <g id="xtick_14">
     <g id="line2d_23">
      <g>
       <use xlink:href="#mfe069522df" x="78.879142" y="221.378455" style="stroke: #000000; stroke-width: 0.6"/>
      </g>
     </g>
    </g>
    <g id="xtick_15">
     <g id="line2d_24">
      <g>
       <use xlink:href="#mfe069522df" x="89.420192" y="221.378455" style="stroke: #000000; stroke-width: 0.6"/>
      </g>
     </g>
    </g>
    <g id="xtick_16">
     <g id="line2d_25">
      <g>
       <use xlink:href="#mfe069522df" x="99.961243" y="221.378455" style="stroke: #000000; stroke-width: 0.6"/>
      </g>
     </g>
    </g>
    <g id="xtick_17">
     <g id="line2d_26">
      <g>
       <use xlink:href="#mfe069522df" x="110.502293" y="221.378455" style="stroke: #000000; stroke-width: 0.6"/>
      </g>
     </g>
    </g>
    <g id="xtick_18">
     <g id="line2d_27">
      <g>
       <use xlink:href="#mfe069522df" x="131.584393" y="221.378455" style="stroke: #000000; stroke-width: 0.6"/>
      </g>
     </g>
    </g>
    <g id="xtick_19">
     <g id="line2d_28">
      <g>
       <use xlink:href="#mfe069522df" x="142.125444" y="221.378455" style="stroke: #000000; stroke-width: 0.6"/>
      </g>
     </g>
    </g>
    <g id="xtick_20">
     <g id="line2d_29">
      <g>
       <use xlink:href="#mfe069522df" x="152.666494" y="221.378455" style="stroke: #000000; stroke-width: 0.6"/>
      </g>
     </g>
    </g>
    <g id="xtick_21">
     <g id="line2d_30">
      <g>
       <use xlink:href="#mfe069522df" x="163.207544" y="221.378455" style="stroke: #000000; stroke-width: 0.6"/>
      </g>
     </g>
    </g>
    <g id="xtick_22">
     <g id="line2d_31">
      <g>
       <use xlink:href="#mfe069522df" x="184.289645" y="221.378455" style="stroke: #000000; stroke-width: 0.6"/>
      </g>
     </g>
    </g>
    <g id="xtick_23">
     <g id="line2d_32">
      <g>
       <use xlink:href="#mfe069522df" x="194.830695" y="221.378455" style="stroke: #000000; stroke-width: 0.6"/>
      </g>
     </g>
    </g>
    <g id="xtick_24">
     <g id="line2d_33">
      <g>
       <use xlink:href="#mfe069522df" x="205.371746" y="221.378455" style="stroke: #000000; stroke-width: 0.6"/>
      </g>
     </g>
    </g>
    <g id="xtick_25">
     <g id="line2d_34">
      <g>
       <use xlink:href="#mfe069522df" x="215.912796" y="221.378455" style="stroke: #000000; stroke-width: 0.6"/>
      </g>
     </g>
    </g>
    <g id="xtick_26">
     <g id="line2d_35">
      <g>
       <use xlink:href="#mfe069522df" x="236.994896" y="221.378455" style="stroke: #000000; stroke-width: 0.6"/>
      </g>
     </g>
    </g>
    <g id="xtick_27">
     <g id="line2d_36">
      <g>
       <use xlink:href="#mfe069522df" x="247.535947" y="221.378455" style="stroke: #000000; stroke-width: 0.6"/>
      </g>
     </g>
    </g>
    <g id="xtick_28">
     <g id="line2d_37">
      <g>
       <use xlink:href="#mfe069522df" x="258.076997" y="221.378455" style="stroke: #000000; stroke-width: 0.6"/>
      </g>
     </g>
    </g>
    <g id="xtick_29">
     <g id="line2d_38">
      <g>
       <use xlink:href="#mfe069522df" x="268.618047" y="221.378455" style="stroke: #000000; stroke-width: 0.6"/>
      </g>
     </g>
    </g>
    <g id="xtick_30">
     <g id="line2d_39">
      <g>
       <use xlink:href="#mfe069522df" x="289.700148" y="221.378455" style="stroke: #000000; stroke-width: 0.6"/>
      </g>
     </g>
    </g>
    <g id="xtick_31">
     <g id="line2d_40">
      <g>
       <use xlink:href="#mfe069522df" x="300.241198" y="221.378455" style="stroke: #000000; stroke-width: 0.6"/>
      </g>
     </g>
    </g>
    <g id="xtick_32">
     <g id="line2d_41">
      <g>
       <use xlink:href="#mfe069522df" x="310.782249" y="221.378455" style="stroke: #000000; stroke-width: 0.6"/>
      </g>
     </g>
    </g>
    <g id="xtick_33">
     <g id="line2d_42">
      <g>
       <use xlink:href="#mfe069522df" x="321.323299" y="221.378455" style="stroke: #000000; stroke-width: 0.6"/>
      </g>
     </g>
    </g>
    <g id="xtick_34">
     <g id="line2d_43">
      <g>
       <use xlink:href="#mfe069522df" x="342.405399" y="221.378455" style="stroke: #000000; stroke-width: 0.6"/>
      </g>
     </g>
    </g>
    <g id="xtick_35">
     <g id="line2d_44">
      <g>
       <use xlink:href="#mfe069522df" x="352.94645" y="221.378455" style="stroke: #000000; stroke-width: 0.6"/>
      </g>
     </g>
    </g>
    <g id="xtick_36">
     <g id="line2d_45">
      <g>
       <use xlink:href="#mfe069522df" x="363.4875" y="221.378455" style="stroke: #000000; stroke-width: 0.6"/>
      </g>
     </g>
    </g>
    <g id="xtick_37">
     <g id="line2d_46">
      <g>
       <use xlink:href="#mfe069522df" x="374.02855" y="221.378455" style="stroke: #000000; stroke-width: 0.6"/>
      </g>
     </g>
    </g>
    <g id="xtick_38">
     <g id="line2d_47">
      <g>
       <use xlink:href="#mfe069522df" x="395.110651" y="221.378455" style="stroke: #000000; stroke-width: 0.6"/>
      </g>
     </g>
    </g>
    <g id="xtick_39">
     <g id="line2d_48">
      <g>
       <use xlink:href="#mfe069522df" x="405.651701" y="221.378455" style="stroke: #000000; stroke-width: 0.6"/>
      </g>
     </g>
    </g>
    <g id="xtick_40">
     <g id="line2d_49">
      <g>
       <use xlink:href="#mfe069522df" x="416.192751" y="221.378455" style="stroke: #000000; stroke-width: 0.6"/>
      </g>
     </g>
    </g>
    <g id="xtick_41">
     <g id="line2d_50">
      <g>
       <use xlink:href="#mfe069522df" x="426.733802" y="221.378455" style="stroke: #000000; stroke-width: 0.6"/>
      </g>
     </g>
    </g>
   </g>
   <g id="matplotlib.axis_2">
    <g id="ytick_1">
     <g id="line2d_51">
      <path d="M 7.2 202.181421 
L 445.707692 202.181421 
" clip-path="url(#p092527d3a7)" style="fill: none; stroke-dasharray: 0.5,0.825; stroke-dashoffset: 0; stroke: #000000; stroke-width: 0.5"/>
     </g>
     <g id="line2d_52">
      <defs>
       <path id="m9716eeaa76" d="M 0 0 
L -3.5 0 
" style="stroke: #000000; stroke-width: 0.8"/>
      </defs>
      <g>
       <use xlink:href="#m9716eeaa76" x="121.043343" y="202.181421" style="stroke: #000000; stroke-width: 0.8"/>
      </g>
     </g>
     <g id="text_10">
      <!-- 0.5 -->
      <g transform="translate(98.140218 205.980249) scale(0.1 -0.1)">
       <defs>
        <path id="DejaVuSans-11" d="M 684 794 
L 1344 794 
L 1344 0 
L 684 0 
L 684 794 
z
" transform="scale(0.015625)"/>
       </defs>
       <use xlink:href="#DejaVuSans-13"/>
       <use xlink:href="#DejaVuSans-11" transform="translate(63.625 0)"/>
       <use xlink:href="#DejaVuSans-18" transform="translate(95.40625 0)"/>
      </g>
     </g>
    </g>
    <g id="ytick_2">
     <g id="line2d_53">
      <path d="M 7.2 175.828795 
L 445.707692 175.828795 
" clip-path="url(#p092527d3a7)" style="fill: none; stroke-dasharray: 0.5,0.825; stroke-dashoffset: 0; stroke: #000000; stroke-width: 0.5"/>
     </g>
     <g id="line2d_54">
      <g>
       <use xlink:href="#m9716eeaa76" x="121.043343" y="175.828795" style="stroke: #000000; stroke-width: 0.8"/>
      </g>
     </g>
     <g id="text_11">
      <!-- 1.0 -->
      <g transform="translate(98.140218 179.627623) scale(0.1 -0.1)">
       <use xlink:href="#DejaVuSans-14"/>
       <use xlink:href="#DejaVuSans-11" transform="translate(63.625 0)"/>
       <use xlink:href="#DejaVuSans-13" transform="translate(95.40625 0)"/>
      </g>
     </g>
    </g>
    <g id="ytick_3">
     <g id="line2d_55">
      <path d="M 7.2 149.476169 
L 445.707692 149.476169 
" clip-path="url(#p092527d3a7)" style="fill: none; stroke-dasharray: 0.5,0.825; stroke-dashoffset: 0; stroke: #000000; stroke-width: 0.5"/>
     </g>
     <g id="line2d_56">
      <g>
       <use xlink:href="#m9716eeaa76" x="121.043343" y="149.476169" style="stroke: #000000; stroke-width: 0.8"/>
      </g>
     </g>
     <g id="text_12">
      <!-- 1.5 -->
      <g transform="translate(98.140218 153.274998) scale(0.1 -0.1)">
       <use xlink:href="#DejaVuSans-14"/>
       <use xlink:href="#DejaVuSans-11" transform="translate(63.625 0)"/>
       <use xlink:href="#DejaVuSans-18" transform="translate(95.40625 0)"/>
      </g>
     </g>
    </g>
    <g id="ytick_4">
     <g id="line2d_57">
      <path d="M 7.2 123.123544 
L 445.707692 123.123544 
" clip-path="url(#p092527d3a7)" style="fill: none; stroke-dasharray: 0.5,0.825; stroke-dashoffset: 0; stroke: #000000; stroke-width: 0.5"/>
     </g>
     <g id="line2d_58">
      <g>
       <use xlink:href="#m9716eeaa76" x="121.043343" y="123.123544" style="stroke: #000000; stroke-width: 0.8"/>
      </g>
     </g>
     <g id="text_13">
      <!-- 2.0 -->
      <g transform="translate(98.140218 126.922372) scale(0.1 -0.1)">
       <use xlink:href="#DejaVuSans-15"/>
       <use xlink:href="#DejaVuSans-11" transform="translate(63.625 0)"/>
       <use xlink:href="#DejaVuSans-13" transform="translate(95.40625 0)"/>
      </g>
     </g>
    </g>
    <g id="ytick_5">
     <g id="line2d_59">
      <path d="M 7.2 96.770918 
L 445.707692 96.770918 
" clip-path="url(#p092527d3a7)" style="fill: none; stroke-dasharray: 0.5,0.825; stroke-dashoffset: 0; stroke: #000000; stroke-width: 0.5"/>
     </g>
     <g id="line2d_60">
      <g>
       <use xlink:href="#m9716eeaa76" x="121.043343" y="96.770918" style="stroke: #000000; stroke-width: 0.8"/>
      </g>
     </g>
     <g id="text_14">
      <!-- 2.5 -->
      <g transform="translate(98.140218 100.569746) scale(0.1 -0.1)">
       <use xlink:href="#DejaVuSans-15"/>
       <use xlink:href="#DejaVuSans-11" transform="translate(63.625 0)"/>
       <use xlink:href="#DejaVuSans-18" transform="translate(95.40625 0)"/>
      </g>
     </g>
    </g>
    <g id="ytick_6">
     <g id="line2d_61">
      <path d="M 7.2 70.418292 
L 445.707692 70.418292 
" clip-path="url(#p092527d3a7)" style="fill: none; stroke-dasharray: 0.5,0.825; stroke-dashoffset: 0; stroke: #000000; stroke-width: 0.5"/>
     </g>
     <g id="line2d_62">
      <g>
       <use xlink:href="#m9716eeaa76" x="121.043343" y="70.418292" style="stroke: #000000; stroke-width: 0.8"/>
      </g>
     </g>
     <g id="text_15">
      <!-- 3.0 -->
      <g transform="translate(98.140218 74.21712) scale(0.1 -0.1)">
       <use xlink:href="#DejaVuSans-16"/>
       <use xlink:href="#DejaVuSans-11" transform="translate(63.625 0)"/>
       <use xlink:href="#DejaVuSans-13" transform="translate(95.40625 0)"/>
      </g>
     </g>
    </g>
    <g id="ytick_7">
     <g id="line2d_63">
      <path d="M 7.2 44.065666 
L 445.707692 44.065666 
" clip-path="url(#p092527d3a7)" style="fill: none; stroke-dasharray: 0.5,0.825; stroke-dashoffset: 0; stroke: #000000; stroke-width: 0.5"/>
     </g>
     <g id="line2d_64">
      <g>
       <use xlink:href="#m9716eeaa76" x="121.043343" y="44.065666" style="stroke: #000000; stroke-width: 0.8"/>
      </g>
     </g>
     <g id="text_16">
      <!-- 3.5 -->
      <g transform="translate(98.140218 47.864495) scale(0.1 -0.1)">
       <use xlink:href="#DejaVuSans-16"/>
       <use xlink:href="#DejaVuSans-11" transform="translate(63.625 0)"/>
       <use xlink:href="#DejaVuSans-18" transform="translate(95.40625 0)"/>
      </g>
     </g>
    </g>
    <g id="ytick_8">
     <g id="line2d_65">
      <path d="M 7.2 17.713041 
L 445.707692 17.713041 
" clip-path="url(#p092527d3a7)" style="fill: none; stroke-dasharray: 0.5,0.825; stroke-dashoffset: 0; stroke: #000000; stroke-width: 0.5"/>
     </g>
     <g id="line2d_66">
      <g>
       <use xlink:href="#m9716eeaa76" x="121.043343" y="17.713041" style="stroke: #000000; stroke-width: 0.8"/>
      </g>
     </g>
     <g id="text_17">
      <!-- 4.0 -->
      <g transform="translate(98.140218 21.511869) scale(0.1 -0.1)">
       <use xlink:href="#DejaVuSans-17"/>
       <use xlink:href="#DejaVuSans-11" transform="translate(63.625 0)"/>
       <use xlink:href="#DejaVuSans-13" transform="translate(95.40625 0)"/>
      </g>
     </g>
    </g>
    <g id="ytick_9">
     <g id="line2d_67">
      <defs>
       <path id="ma1ef24f7f2" d="M 0 0 
L -2 0 
" style="stroke: #000000; stroke-width: 0.6"/>
      </defs>
      <g>
       <use xlink:href="#ma1ef24f7f2" x="121.043343" y="207.451946" style="stroke: #000000; stroke-width: 0.6"/>
      </g>
     </g>
    </g>
    <g id="ytick_10">
     <g id="line2d_68">
      <g>
       <use xlink:href="#ma1ef24f7f2" x="121.043343" y="196.910896" style="stroke: #000000; stroke-width: 0.6"/>
      </g>
     </g>
    </g>
    <g id="ytick_11">
     <g id="line2d_69">
      <g>
       <use xlink:href="#ma1ef24f7f2" x="121.043343" y="191.640371" style="stroke: #000000; stroke-width: 0.6"/>
      </g>
     </g>
    </g>
    <g id="ytick_12">
     <g id="line2d_70">
      <g>
       <use xlink:href="#ma1ef24f7f2" x="121.043343" y="186.369845" style="stroke: #000000; stroke-width: 0.6"/>
      </g>
     </g>
    </g>
    <g id="ytick_13">
     <g id="line2d_71">
      <g>
       <use xlink:href="#ma1ef24f7f2" x="121.043343" y="181.09932" style="stroke: #000000; stroke-width: 0.6"/>
      </g>
     </g>
    </g>
    <g id="ytick_14">
     <g id="line2d_72">
      <g>
       <use xlink:href="#ma1ef24f7f2" x="121.043343" y="170.55827" style="stroke: #000000; stroke-width: 0.6"/>
      </g>
     </g>
    </g>
    <g id="ytick_15">
     <g id="line2d_73">
      <g>
       <use xlink:href="#ma1ef24f7f2" x="121.043343" y="165.287745" style="stroke: #000000; stroke-width: 0.6"/>
      </g>
     </g>
    </g>
    <g id="ytick_16">
     <g id="line2d_74">
      <g>
       <use xlink:href="#ma1ef24f7f2" x="121.043343" y="160.01722" style="stroke: #000000; stroke-width: 0.6"/>
      </g>
     </g>
    </g>
    <g id="ytick_17">
     <g id="line2d_75">
      <g>
       <use xlink:href="#ma1ef24f7f2" x="121.043343" y="154.746695" style="stroke: #000000; stroke-width: 0.6"/>
      </g>
     </g>
    </g>
    <g id="ytick_18">
     <g id="line2d_76">
      <g>
       <use xlink:href="#ma1ef24f7f2" x="121.043343" y="144.205644" style="stroke: #000000; stroke-width: 0.6"/>
      </g>
     </g>
    </g>
    <g id="ytick_19">
     <g id="line2d_77">
      <g>
       <use xlink:href="#ma1ef24f7f2" x="121.043343" y="138.935119" style="stroke: #000000; stroke-width: 0.6"/>
      </g>
     </g>
    </g>
    <g id="ytick_20">
     <g id="line2d_78">
      <g>
       <use xlink:href="#ma1ef24f7f2" x="121.043343" y="133.664594" style="stroke: #000000; stroke-width: 0.6"/>
      </g>
     </g>
    </g>
    <g id="ytick_21">
     <g id="line2d_79">
      <g>
       <use xlink:href="#ma1ef24f7f2" x="121.043343" y="128.394069" style="stroke: #000000; stroke-width: 0.6"/>
      </g>
     </g>
    </g>
    <g id="ytick_22">
     <g id="line2d_80">
      <g>
       <use xlink:href="#ma1ef24f7f2" x="121.043343" y="117.853019" style="stroke: #000000; stroke-width: 0.6"/>
      </g>
     </g>
    </g>
    <g id="ytick_23">
     <g id="line2d_81">
      <g>
       <use xlink:href="#ma1ef24f7f2" x="121.043343" y="112.582493" style="stroke: #000000; stroke-width: 0.6"/>
      </g>
     </g>
    </g>
    <g id="ytick_24">
     <g id="line2d_82">
      <g>
       <use xlink:href="#ma1ef24f7f2" x="121.043343" y="107.311968" style="stroke: #000000; stroke-width: 0.6"/>
      </g>
     </g>
    </g>
    <g id="ytick_25">
     <g id="line2d_83">
      <g>
       <use xlink:href="#ma1ef24f7f2" x="121.043343" y="102.041443" style="stroke: #000000; stroke-width: 0.6"/>
      </g>
     </g>
    </g>
    <g id="ytick_26">
     <g id="line2d_84">
      <g>
       <use xlink:href="#ma1ef24f7f2" x="121.043343" y="91.500393" style="stroke: #000000; stroke-width: 0.6"/>
      </g>
     </g>
    </g>
    <g id="ytick_27">
     <g id="line2d_85">
      <g>
       <use xlink:href="#ma1ef24f7f2" x="121.043343" y="86.229868" style="stroke: #000000; stroke-width: 0.6"/>
      </g>
     </g>
    </g>
    <g id="ytick_28">
     <g id="line2d_86">
      <g>
       <use xlink:href="#ma1ef24f7f2" x="121.043343" y="80.959343" style="stroke: #000000; stroke-width: 0.6"/>
      </g>
     </g>
    </g>
    <g id="ytick_29">
     <g id="line2d_87">
      <g>
       <use xlink:href="#ma1ef24f7f2" x="121.043343" y="75.688817" style="stroke: #000000; stroke-width: 0.6"/>
      </g>
     </g>
    </g>
    <g id="ytick_30">
     <g id="line2d_88">
      <g>
       <use xlink:href="#ma1ef24f7f2" x="121.043343" y="65.147767" style="stroke: #000000; stroke-width: 0.6"/>
      </g>
     </g>
    </g>
    <g id="ytick_31">
     <g id="line2d_89">
      <g>
       <use xlink:href="#ma1ef24f7f2" x="121.043343" y="59.877242" style="stroke: #000000; stroke-width: 0.6"/>
      </g>
     </g>
    </g>
    <g id="ytick_32">
     <g id="line2d_90">
      <g>
       <use xlink:href="#ma1ef24f7f2" x="121.043343" y="54.606717" style="stroke: #000000; stroke-width: 0.6"/>
      </g>
     </g>
    </g>
    <g id="ytick_33">
     <g id="line2d_91">
      <g>
       <use xlink:href="#ma1ef24f7f2" x="121.043343" y="49.336192" style="stroke: #000000; stroke-width: 0.6"/>
      </g>
     </g>
    </g>
    <g id="ytick_34">
     <g id="line2d_92">
      <g>
       <use xlink:href="#ma1ef24f7f2" x="121.043343" y="38.795141" style="stroke: #000000; stroke-width: 0.6"/>
      </g>
     </g>
    </g>
    <g id="ytick_35">
     <g id="line2d_93">
      <g>
       <use xlink:href="#ma1ef24f7f2" x="121.043343" y="33.524616" style="stroke: #000000; stroke-width: 0.6"/>
      </g>
     </g>
    </g>
    <g id="ytick_36">
     <g id="line2d_94">
      <g>
       <use xlink:href="#ma1ef24f7f2" x="121.043343" y="28.254091" style="stroke: #000000; stroke-width: 0.6"/>
      </g>
     </g>
    </g>
    <g id="ytick_37">
     <g id="line2d_95">
      <g>
       <use xlink:href="#ma1ef24f7f2" x="121.043343" y="22.983566" style="stroke: #000000; stroke-width: 0.6"/>
      </g>
     </g>
    </g>
    <g id="ytick_38">
     <g id="line2d_96">
      <g>
       <use xlink:href="#ma1ef24f7f2" x="121.043343" y="12.442516" style="stroke: #000000; stroke-width: 0.6"/>
      </g>
     </g>
    </g>
   </g>
   <g id="line2d_97">
    <path d="M 15.63284 175.828795 
L 21.507865 161.468676 
L 26.974398 148.695187 
L 32.839029 135.621896 
L 38.32085 123.992021 
L 43.422644 113.680626 
L 48.243265 104.39129 
L 53.121944 95.438985 
L 57.44564 87.882526 
L 63.005033 78.687697 
L 66.97056 72.487331 
L 71.002755 66.488658 
L 75.894093 59.625917 
L 80.016389 54.19467 
L 84.082974 49.152739 
L 88.211339 44.355163 
L 93.203124 38.986097 
L 98.006384 34.266137 
L 101.581111 31.037522 
L 105.620784 27.680788 
L 110.004257 24.388649 
L 114.527718 21.373596 
L 118.633283 18.973173 
L 121.967513 17.259058 
L 125.175987 15.80874 
L 129.25185 14.247999 
L 132.482669 13.234793 
L 135.42481 12.484413 
L 138.71098 11.840458 
L 142.715524 11.332706 
L 146.34475 11.135368 
L 149.444617 11.1647 
L 152.874143 11.409584 
L 155.538412 11.753848 
L 159.700157 12.561108 
L 163.82484 13.685424 
L 167.499075 14.958799 
L 171.448156 16.613025 
L 175.536362 18.637245 
L 178.62604 20.377447 
L 182.465851 22.79257 
L 184.9499 24.503985 
L 189.255691 27.747861 
L 192.209087 30.176265 
L 196.674387 34.162081 
L 200.845849 38.227399 
L 205.284338 42.915485 
L 208.71279 46.792607 
L 213.631729 52.744797 
L 217.660561 57.961896 
L 222.36228 64.43976 
L 225.399741 68.847676 
L 225.399741 68.847676 
" clip-path="url(#p092527d3a7)" style="fill: none; stroke: #0000ff; stroke-linecap: square"/>
   </g>
   <g id="line2d_98">
    <path d="M 229.089109 175.706894 
L 231.513593 175.379565 
L 234.012634 174.826808 
L 236.724103 173.980668 
L 239.594597 172.80697 
L 242.654963 171.243191 
L 245.509655 169.496639 
L 248.35599 167.48177 
L 251.304239 165.110764 
L 253.911931 162.776408 
L 257.044159 159.683297 
L 260.173543 156.28417 
L 263.862553 151.890861 
L 267.507083 147.152389 
L 270.899846 142.397895 
L 274.772142 136.58276 
L 278.885959 129.971906 
L 282.874526 123.1594 
L 287.15321 115.43803 
L 291.758046 106.6853 
L 296.960575 96.294878 
L 302.448553 84.82401 
L 308.629576 71.3714 
L 315.856472 55.074018 
L 325.014003 33.82577 
L 330.810244 20.196615 
L 330.810244 20.196615 
" clip-path="url(#p092527d3a7)" style="fill: none; stroke: #0000ff; stroke-linecap: square"/>
   </g>
   <g id="line2d_99">
    <path d="M 334.499612 17.317751 
L 336.608078 17.191254 
L 339.266599 17.272208 
L 341.370619 17.526401 
L 343.615275 17.982789 
L 346.484079 18.844412 
L 348.52335 19.646794 
L 350.832389 20.745821 
L 353.44733 22.234749 
L 356.11829 24.023449 
L 359.010752 26.265805 
L 361.598399 28.540911 
L 364.420449 31.311764 
L 367.392196 34.556279 
L 370.65743 38.507616 
L 373.678074 42.523225 
L 376.964804 47.285897 
L 379.856432 51.815013 
L 383.573079 58.102344 
L 387.120806 64.592903 
L 390.868145 71.96733 
L 394.435622 79.482925 
L 398.275487 88.112024 
L 401.791766 96.504718 
L 405.720654 106.437229 
L 409.672632 117.019044 
L 413.887123 128.956779 
L 418.105625 141.58085 
L 422.594857 155.756785 
L 427.220471 171.163336 
L 431.648775 186.673415 
L 436.133311 203.138815 
L 437.274852 207.451946 
L 437.274852 207.451946 
" clip-path="url(#p092527d3a7)" style="fill: none; stroke: #0000ff; stroke-linecap: square"/>
   </g>
   <g id="patch_3">
    <path d="M 121.043343 211.378455 
L 121.043343 7.2 
" style="fill: none; stroke: #000000; stroke-width: 0.8; stroke-linejoin: miter; stroke-linecap: square"/>
   </g>
   <g id="patch_4">
    <path d="M 7.2 221.378455 
L 445.707692 221.378455 
" style="fill: none; stroke: #000000; stroke-width: 0.8; stroke-linejoin: miter; stroke-linecap: square"/>
   </g>
   <g id="patch_5">
    <path d="M 226.453846 73.053555 
C 227.152726 73.053555 227.823076 72.775887 228.317258 72.281704 
C 228.811441 71.787522 229.089109 71.117172 229.089109 70.418292 
C 229.089109 69.719412 228.811441 69.049063 228.317258 68.55488 
C 227.823076 68.060698 227.152726 67.78303 226.453846 67.78303 
C 225.754966 67.78303 225.084617 68.060698 224.590434 68.55488 
C 224.096251 69.049063 223.818584 69.719412 223.818584 70.418292 
C 223.818584 71.117172 224.096251 71.787522 224.590434 72.281704 
C 225.084617 72.775887 225.754966 73.053555 226.453846 73.053555 
z
" clip-path="url(#p092527d3a7)" style="fill: #0000ff; stroke: #0000ff; stroke-linejoin: miter"/>
   </g>
   <g id="patch_6">
    <path d="M 226.453846 178.464058 
C 227.152726 178.464058 227.823076 178.18639 228.317258 177.692207 
C 228.811441 177.198025 229.089109 176.527675 229.089109 175.828795 
C 229.089109 175.129915 228.811441 174.459566 228.317258 173.965383 
C 227.823076 173.4712 227.152726 173.193533 226.453846 173.193533 
C 225.754966 173.193533 225.084617 173.4712 224.590434 173.965383 
C 224.096251 174.459566 223.818584 175.129915 223.818584 175.828795 
C 223.818584 176.527675 224.096251 177.198025 224.590434 177.692207 
C 225.084617 178.18639 225.754966 178.464058 226.453846 178.464058 
L 226.453846 178.464058 
z
" clip-path="url(#p092527d3a7)" style="fill: none; stroke: #0000ff; stroke-linejoin: miter"/>
   </g>
   <g id="patch_7">
    <path d="M 331.864349 20.348303 
C 332.563229 20.348303 333.233579 20.070635 333.727761 19.576453 
C 334.221944 19.08227 334.499612 18.411921 334.499612 17.713041 
C 334.499612 17.014161 334.221944 16.343811 333.727761 15.849629 
C 333.233579 15.355446 332.563229 15.077778 331.864349 15.077778 
C 331.165469 15.077778 330.49512 15.355446 330.000937 15.849629 
C 329.506754 16.343811 329.229087 17.014161 329.229087 17.713041 
C 329.229087 18.411921 329.506754 19.08227 330.000937 19.576453 
C 330.49512 20.070635 331.165469 20.348303 331.864349 20.348303 
L 331.864349 20.348303 
z
" clip-path="url(#p092527d3a7)" style="fill: none; stroke: #0000ff; stroke-linejoin: miter"/>
   </g>
  </g>
 </g>
 <defs>
  <clipPath id="p092527d3a7">
   <rect x="7.2" y="7.2" width="438.507692" height="204.178455"/>
  </clipPath>
 </defs>
</svg>
